<?xml version="1.0" encoding="UTF-8"?>
<svg height="600" width="800" xmlns="http://www.w3.org/2000/svg" xmlns:xlink="http://www.w3.org/1999/xlink">
    <style>
        
    </style>
    <g id="Notes" font-family="'LucidaGrande', 'Lucida Grande', sans-serif" font-size="13">
        <rect fill="white" height="600.0" width="800.0" x="0.0" y="0.0" />
        <g font-size="13">
            <text x="18.0" y="176.0">Small</text>
            <text x="18.0" y="376.0">Medium</text>
            <text x="18.0" y="576.0">Large</text>
        </g>
        <g font-size="9">
            <text x="250.0" y="30.0">Ultralight</text>
            <text x="450.0" y="30.0">Regular</text>
            <text x="650.0" y="30.0">Black</text>
            <text id="template-version" fill="#505050" text-anchor="end" x="785.0" y="575.0">Template v.3.0</text>
            <a href="https://github.com/swhitty/SwiftDraw">
                <text fill="#505050" text-anchor="end" x="785.0" y="590.0">https://github.com/swhitty/SwiftDraw</text>
            </a>
        </g>
    </g>
    <g id="Guides" stroke="rgb(39, 170, 225)" stroke-width="0.5">
        <path id="Capline-S" d="M18,76 l800,0" />
        <path id="H-reference" d="M85,145.8 L87.7,145.8 L113.4,79.3 L114.1,79.3 L114.1,76 L112.1,76 L85,145.8 Z M95.7,121.5 L131,121.5 L130.3,119.3 L96.5,119.3 L95.7,121.5 Z M139.1,145.8 L141.8,145.8 L114.6,76 L113.5,76 L113.5,79.3 L139.1,145.8 Z" stroke="none" />
        <path id="Baseline-S" d="M18,146 l800,0" />
        <path id="left-margin-Ultralight-S" d="M220,56 l0,110" />
        <path id="right-margin-Ultralight-S" d="M310,56 l0,110" />
        <path id="left-margin-Regular-S" d="M416.5,56 l0,110" />
        <path id="right-margin-Regular-S" d="M513.5,56 l0,110" />
        <path id="left-margin-Black-S" d="M617.1,56 l0,110" />
        <path id="right-margin-Black-S" d="M712.9,56 l0,110" />
        <path id="Capline-M" d="M18,276 l800,0" />
        <path id="Baseline-M" d="M18,346 l800,0" />
        <path id="Capline-L" d="M18,476 l800,0" />
        <path id="Baseline-L" d="M18,546 l800,0" />
    </g>
    <g id="Symbols">
        <g id="Ultralight-S">
            <path class="monochrome-0 multicolor-0:tintColor hierarchical-0:secondary" d="M257.6,76 C257,76 256.6,76.5 256.6,77 L256.6,129.9 C256.6,138.9 251.6,144 242.7,144 L231,144 C230.5,144 230,144.4 230,145 C230,145.5 230.5,146 231,146 L242.7,146 C252.9,146 258.6,140.2 258.6,129.9 L258.6,77 C258.6,76.5 258.2,76 257.6,76 Z M257.2,88.9 L257.2,115.5 L259.1,115.5 C260.2,115.5 261,114.7 261,113.6 L261,90.8 C261,89.7 260.2,88.9 259.1,88.9 Z" />
            <path class="monochrome-1 multicolor-1:tintColor hierarchical-1:primary" d="M299,101.2 L276.2,101.2 C275.6,101.2 275.2,101.7 275.2,102.2 C275.2,102.8 275.6,103.3 276.2,103.3 L299,103.3 C299.5,103.3 300,102.8 300,102.2 C300,101.7 299.5,101.2 299,101.2 Z M281.7,110.4 L281.7,94.1 C281.7,92.7 280.2,92.1 279.1,93 L269.4,100.9 C268.4,101.6 268.5,102.9 269.4,103.7 L279.1,111.5 C280.2,112.3 281.7,111.8 281.7,110.4 Z" />
        </g>
        <g id="Regular-S">
            <path class="monochrome-0 multicolor-0:tintColor hierarchical-0:secondary" d="M453.3,76 C451.6,76 450.2,77.4 450.2,79.2 L450.2,129.5 C450.2,135.5 446.2,139.7 439.2,139.7 L429.6,139.7 C427.9,139.7 426.5,141.1 426.5,142.8 C426.5,144.6 427.9,146 429.6,146 L439.2,146 C449.8,146 456.5,139.2 456.5,129.5 L456.5,79.2 C456.5,77.4 455,76 453.3,76 Z M452.1,88.4 L452.1,115.3 L456.4,115.3 C458.9,115.3 460.7,113.5 460.7,111 L460.7,92.7 C460.7,90.2 458.9,88.4 456.4,88.4 Z" />
            <path class="monochrome-1 multicolor-1:tintColor hierarchical-1:primary" d="M500.2,98.7 L476.9,98.7 C475,98.7 473.5,100.2 473.5,102.1 C473.5,103.9 475,105.4 476.9,105.4 L500.2,105.4 C502,105.4 503.5,103.9 503.5,102.1 C503.5,100.2 502,98.7 500.2,98.7 Z M484.7,111.5 L484.7,92.7 C484.7,89.4 481.5,88.3 479.3,90.2 L468.8,99.8 C467.3,101.2 467.3,103 468.8,104.3 L479.3,113.9 C481.6,116 484.7,114.6 484.7,111.5 Z" />
        </g>
        <g id="Black-S">
            <path class="monochrome-0 multicolor-0:tintColor hierarchical-0:secondary" d="M653.5,76 C650.7,76 648.5,78.4 648.5,81.3 L648.5,121.4 C648.5,130.4 643.8,135.4 635.6,135.4 L632.1,135.4 C629.3,135.4 627.1,137.8 627.1,140.7 C627.1,143.6 629.3,146 632.1,146 L635.3,146 C650.2,146 658.5,137.1 658.5,121.2 L658.5,81.3 C658.5,78.4 656.3,76 653.5,76 Z M653.5,87.9 L653.5,117.2 L659,117.2 C662.1,117.2 664.4,114.8 664.4,111.1 L664.4,93.8 C664.4,90.3 662.1,87.9 659,87.9 Z" />
            <path class="monochrome-1 multicolor-1:tintColor hierarchical-1:primary" d="M698.8,98.1 L679.4,98.1 C677.1,98.1 675.2,100.1 675.2,102.5 C675.2,105 677.1,106.9 679.4,106.9 L698.8,106.9 C701.1,106.9 702.9,105 702.9,102.5 C702.9,100.1 701.1,98.1 698.8,98.1 Z M686.1,112 L686.1,93.2 C686.1,89.9 683.2,88.6 680.9,90.7 L670.6,100.2 C669.2,101.5 669.2,103.5 670.6,104.8 L680.9,114.3 C683.1,116.3 686.1,115 686.1,112 Z" />
        </g>
    </g>
</svg>